# Blender v2.79 (sub 0) OBJ File: ''
# www.blender.org
mtllib dense_lattice.mtl
o Plane
v -1.000000 0.000000 1.000000
v 1.000000 0.000000 1.000000
v -1.000000 0.000000 -1.000000
v 1.000000 0.000000 -1.000000
v -1.000000 0.020000 1.000000
v 1.000000 0.020000 1.000000
v -1.000000 0.020000 -1.000000
v 1.000000 0.020000 -1.000000
v -1.000000 0.040000 1.000000
v 1.000000 0.040000 1.000000
v -1.000000 0.040000 -1.000000
v 1.000000 0.040000 -1.000000
v -1.000000 0.060000 1.000000
v 1.000000 0.060000 1.000000
v -1.000000 0.060000 -1.000000
v 1.000000 0.060000 -1.000000
v -1.000000 0.080000 1.000000
v 1.000000 0.080000 1.000000
v -1.000000 0.080000 -1.000000
v 1.000000 0.080000 -1.000000
v -1.000000 0.100000 1.000000
v 1.000000 0.100000 1.000000
v -1.000000 0.100000 -1.000000
v 1.000000 0.100000 -1.000000
v -1.000000 0.120000 1.000000
v 1.000000 0.120000 1.000000
v -1.000000 0.120000 -1.000000
v 1.000000 0.120000 -1.000000
v -1.000000 0.140000 1.000000
v 1.000000 0.140000 1.000000
v -1.000000 0.140000 -1.000000
v 1.000000 0.140000 -1.000000
v -1.000000 0.160000 1.000000
v 1.000000 0.160000 1.000000
v -1.000000 0.160000 -1.000000
v 1.000000 0.160000 -1.000000
v -1.000000 0.180000 1.000000
v 1.000000 0.180000 1.000000
v -1.000000 0.180000 -1.000000
v 1.000000 0.180000 -1.000000
v -1.000000 0.200000 1.000000
v 1.000000 0.200000 1.000000
v -1.000000 0.200000 -1.000000
v 1.000000 0.200000 -1.000000
v -1.000000 0.220000 1.000000
v 1.000000 0.220000 1.000000
v -1.000000 0.220000 -1.000000
v 1.000000 0.220000 -1.000000
v -1.000000 0.240000 1.000000
v 1.000000 0.240000 1.000000
v -1.000000 0.240000 -1.000000
v 1.000000 0.240000 -1.000000
v -1.000000 0.260000 1.000000
v 1.000000 0.260000 1.000000
v -1.000000 0.260000 -1.000000
v 1.000000 0.260000 -1.000000
v -1.000000 0.280000 1.000000
v 1.000000 0.280000 1.000000
v -1.000000 0.280000 -1.000000
v 1.000000 0.280000 -1.000000
v -1.000000 0.300000 1.000000
v 1.000000 0.300000 1.000000
v -1.000000 0.300000 -1.000000
v 1.000000 0.300000 -1.000000
v -1.000000 0.320000 1.000000
v 1.000000 0.320000 1.000000
v -1.000000 0.320000 -1.000000
v 1.000000 0.320000 -1.000000
v -1.000000 0.340000 1.000000
v 1.000000 0.340000 1.000000
v -1.000000 0.340000 -1.000000
v 1.000000 0.340000 -1.000000
v -1.000000 0.360000 1.000000
v 1.000000 0.360000 1.000000
v -1.000000 0.360000 -1.000000
v 1.000000 0.360000 -1.000000
v -1.000000 0.380000 1.000000
v 1.000000 0.380000 1.000000
v -1.000000 0.380000 -1.000000
v 1.000000 0.380000 -1.000000
v -1.000000 0.400000 1.000000
v 1.000000 0.400000 1.000000
v -1.000000 0.400000 -1.000000
v 1.000000 0.400000 -1.000000
v -1.000000 0.420000 1.000000
v 1.000000 0.420000 1.000000
v -1.000000 0.420000 -1.000000
v 1.000000 0.420000 -1.000000
v -1.000000 0.440000 1.000000
v 1.000000 0.440000 1.000000
v -1.000000 0.440000 -1.000000
v 1.000000 0.440000 -1.000000
v -1.000000 0.460000 1.000000
v 1.000000 0.460000 1.000000
v -1.000000 0.460000 -1.000000
v 1.000000 0.460000 -1.000000
v -1.000000 0.480000 1.000000
v 1.000000 0.480000 1.000000
v -1.000000 0.480000 -1.000000
v 1.000000 0.480000 -1.000000
v -1.000000 0.500000 1.000000
v 1.000000 0.500000 1.000000
v -1.000000 0.500000 -1.000000
v 1.000000 0.500000 -1.000000
v -1.000000 0.520000 1.000000
v 1.000000 0.520000 1.000000
v -1.000000 0.520000 -1.000000
v 1.000000 0.520000 -1.000000
v -1.000000 0.540000 1.000000
v 1.000000 0.540000 1.000000
v -1.000000 0.540000 -1.000000
v 1.000000 0.540000 -1.000000
v -1.000000 0.560000 1.000000
v 1.000000 0.560000 1.000000
v -1.000000 0.560000 -1.000000
v 1.000000 0.560000 -1.000000
v -1.000000 0.580000 1.000000
v 1.000000 0.580000 1.000000
v -1.000000 0.580000 -1.000000
v 1.000000 0.580000 -1.000000
v -1.000000 0.600000 1.000000
v 1.000000 0.600000 1.000000
v -1.000000 0.600000 -1.000000
v 1.000000 0.600000 -1.000000
v -1.000000 0.620000 1.000000
v 1.000000 0.620000 1.000000
v -1.000000 0.620000 -1.000000
v 1.000000 0.620000 -1.000000
v -1.000000 0.640000 1.000000
v 1.000000 0.640000 1.000000
v -1.000000 0.640000 -1.000000
v 1.000000 0.640000 -1.000000
v -1.000000 0.660000 1.000000
v 1.000000 0.660000 1.000000
v -1.000000 0.660000 -1.000000
v 1.000000 0.660000 -1.000000
v -1.000000 0.680000 1.000000
v 1.000000 0.680000 1.000000
v -1.000000 0.680000 -1.000000
v 1.000000 0.680000 -1.000000
v -1.000000 0.700000 1.000000
v 1.000000 0.700000 1.000000
v -1.000000 0.700000 -1.000000
v 1.000000 0.700000 -1.000000
v -1.000000 0.720000 1.000000
v 1.000000 0.720000 1.000000
v -1.000000 0.720000 -1.000000
v 1.000000 0.720000 -1.000000
v -1.000000 0.740000 1.000000
v 1.000000 0.740000 1.000000
v -1.000000 0.740000 -1.000000
v 1.000000 0.740000 -1.000000
v -1.000000 0.760000 1.000000
v 1.000000 0.760000 1.000000
v -1.000000 0.760000 -1.000000
v 1.000000 0.760000 -1.000000
v -1.000000 0.780000 1.000000
v 1.000000 0.780000 1.000000
v -1.000000 0.780000 -1.000000
v 1.000000 0.780000 -1.000000
v -1.000000 0.800000 1.000000
v 1.000000 0.800000 1.000000
v -1.000000 0.800000 -1.000000
v 1.000000 0.800000 -1.000000
v -1.000000 0.820000 1.000000
v 1.000000 0.820000 1.000000
v -1.000000 0.820000 -1.000000
v 1.000000 0.820000 -1.000000
v -1.000000 0.840000 1.000000
v 1.000000 0.840000 1.000000
v -1.000000 0.840000 -1.000000
v 1.000000 0.840000 -1.000000
v -1.000000 0.860000 1.000000
v 1.000000 0.860000 1.000000
v -1.000000 0.860000 -1.000000
v 1.000000 0.860000 -1.000000
v -1.000000 0.880000 1.000000
v 1.000000 0.880000 1.000000
v -1.000000 0.880000 -1.000000
v 1.000000 0.880000 -1.000000
v -1.000000 0.900000 1.000000
v 1.000000 0.900000 1.000000
v -1.000000 0.900000 -1.000000
v 1.000000 0.900000 -1.000000
v -1.000000 0.920000 1.000000
v 1.000000 0.920000 1.000000
v -1.000000 0.920000 -1.000000
v 1.000000 0.920000 -1.000000
v -1.000000 0.940000 1.000000
v 1.000000 0.940000 1.000000
v -1.000000 0.940000 -1.000000
v 1.000000 0.940000 -1.000000
v -1.000000 0.960000 1.000000
v 1.000000 0.960000 1.000000
v -1.000000 0.960000 -1.000000
v 1.000000 0.960000 -1.000000
v -1.000000 0.980000 1.000000
v 1.000000 0.980000 1.000000
v -1.000000 0.980000 -1.000000
v 1.000000 0.980000 -1.000000
v -1.000000 1.000000 1.000000
v 1.000000 1.000000 1.000000
v -1.000000 1.000000 -1.000000
v 1.000000 1.000000 -1.000000
v -1.000000 1.020000 1.000000
v 1.000000 1.020000 1.000000
v -1.000000 1.020000 -1.000000
v 1.000000 1.020000 -1.000000
v -1.000000 1.040000 1.000000
v 1.000000 1.040000 1.000000
v -1.000000 1.040000 -1.000000
v 1.000000 1.040000 -1.000000
v -1.000000 1.060000 1.000000
v 1.000000 1.060000 1.000000
v -1.000000 1.060000 -1.000000
v 1.000000 1.060000 -1.000000
v -1.000000 1.080000 1.000000
v 1.000000 1.080000 1.000000
v -1.000000 1.080000 -1.000000
v 1.000000 1.080000 -1.000000
v -1.000000 1.100000 1.000000
v 1.000000 1.100000 1.000000
v -1.000000 1.100000 -1.000000
v 1.000000 1.100000 -1.000000
v -1.000000 1.120000 1.000000
v 1.000000 1.120000 1.000000
v -1.000000 1.120000 -1.000000
v 1.000000 1.120000 -1.000000
v -1.000000 1.140000 1.000000
v 1.000000 1.140000 1.000000
v -1.000000 1.140000 -1.000000
v 1.000000 1.140000 -1.000000
v -1.000000 1.159999 1.000000
v 1.000000 1.159999 1.000000
v -1.000000 1.159999 -1.000000
v 1.000000 1.159999 -1.000000
v -1.000000 1.179999 1.000000
v 1.000000 1.179999 1.000000
v -1.000000 1.179999 -1.000000
v 1.000000 1.179999 -1.000000
v -1.000000 1.199999 1.000000
v 1.000000 1.199999 1.000000
v -1.000000 1.199999 -1.000000
v 1.000000 1.199999 -1.000000
v -1.000000 1.219999 1.000000
v 1.000000 1.219999 1.000000
v -1.000000 1.219999 -1.000000
v 1.000000 1.219999 -1.000000
v -1.000000 1.239999 1.000000
v 1.000000 1.239999 1.000000
v -1.000000 1.239999 -1.000000
v 1.000000 1.239999 -1.000000
v -1.000000 1.259999 1.000000
v 1.000000 1.259999 1.000000
v -1.000000 1.259999 -1.000000
v 1.000000 1.259999 -1.000000
v -1.000000 1.279999 1.000000
v 1.000000 1.279999 1.000000
v -1.000000 1.279999 -1.000000
v 1.000000 1.279999 -1.000000
v -1.000000 1.299999 1.000000
v 1.000000 1.299999 1.000000
v -1.000000 1.299999 -1.000000
v 1.000000 1.299999 -1.000000
v -1.000000 1.319999 1.000000
v 1.000000 1.319999 1.000000
v -1.000000 1.319999 -1.000000
v 1.000000 1.319999 -1.000000
v -1.000000 1.339999 1.000000
v 1.000000 1.339999 1.000000
v -1.000000 1.339999 -1.000000
v 1.000000 1.339999 -1.000000
v -1.000000 1.359999 1.000000
v 1.000000 1.359999 1.000000
v -1.000000 1.359999 -1.000000
v 1.000000 1.359999 -1.000000
v -1.000000 1.379999 1.000000
v 1.000000 1.379999 1.000000
v -1.000000 1.379999 -1.000000
v 1.000000 1.379999 -1.000000
v -1.000000 1.399999 1.000000
v 1.000000 1.399999 1.000000
v -1.000000 1.399999 -1.000000
v 1.000000 1.399999 -1.000000
v -1.000000 1.419999 1.000000
v 1.000000 1.419999 1.000000
v -1.000000 1.419999 -1.000000
v 1.000000 1.419999 -1.000000
v -1.000000 1.439999 1.000000
v 1.000000 1.439999 1.000000
v -1.000000 1.439999 -1.000000
v 1.000000 1.439999 -1.000000
v -1.000000 1.459999 1.000000
v 1.000000 1.459999 1.000000
v -1.000000 1.459999 -1.000000
v 1.000000 1.459999 -1.000000
v -1.000000 1.479999 1.000000
v 1.000000 1.479999 1.000000
v -1.000000 1.479999 -1.000000
v 1.000000 1.479999 -1.000000
v -1.000000 1.499999 1.000000
v 1.000000 1.499999 1.000000
v -1.000000 1.499999 -1.000000
v 1.000000 1.499999 -1.000000
v -1.000000 1.519999 1.000000
v 1.000000 1.519999 1.000000
v -1.000000 1.519999 -1.000000
v 1.000000 1.519999 -1.000000
v -1.000000 1.539999 1.000000
v 1.000000 1.539999 1.000000
v -1.000000 1.539999 -1.000000
v 1.000000 1.539999 -1.000000
v -1.000000 1.559999 1.000000
v 1.000000 1.559999 1.000000
v -1.000000 1.559999 -1.000000
v 1.000000 1.559999 -1.000000
v -1.000000 1.579999 1.000000
v 1.000000 1.579999 1.000000
v -1.000000 1.579999 -1.000000
v 1.000000 1.579999 -1.000000
v -1.000000 1.599999 1.000000
v 1.000000 1.599999 1.000000
v -1.000000 1.599999 -1.000000
v 1.000000 1.599999 -1.000000
v -1.000000 1.619999 1.000000
v 1.000000 1.619999 1.000000
v -1.000000 1.619999 -1.000000
v 1.000000 1.619999 -1.000000
v -1.000000 1.639999 1.000000
v 1.000000 1.639999 1.000000
v -1.000000 1.639999 -1.000000
v 1.000000 1.639999 -1.000000
v -1.000000 1.659999 1.000000
v 1.000000 1.659999 1.000000
v -1.000000 1.659999 -1.000000
v 1.000000 1.659999 -1.000000
v -1.000000 1.679999 1.000000
v 1.000000 1.679999 1.000000
v -1.000000 1.679999 -1.000000
v 1.000000 1.679999 -1.000000
v -1.000000 1.699999 1.000000
v 1.000000 1.699999 1.000000
v -1.000000 1.699999 -1.000000
v 1.000000 1.699999 -1.000000
v -1.000000 1.719999 1.000000
v 1.000000 1.719999 1.000000
v -1.000000 1.719999 -1.000000
v 1.000000 1.719999 -1.000000
v -1.000000 1.739999 1.000000
v 1.000000 1.739999 1.000000
v -1.000000 1.739999 -1.000000
v 1.000000 1.739999 -1.000000
v -1.000000 1.759999 1.000000
v 1.000000 1.759999 1.000000
v -1.000000 1.759999 -1.000000
v 1.000000 1.759999 -1.000000
v -1.000000 1.779999 1.000000
v 1.000000 1.779999 1.000000
v -1.000000 1.779999 -1.000000
v 1.000000 1.779999 -1.000000
v -1.000000 1.799999 1.000000
v 1.000000 1.799999 1.000000
v -1.000000 1.799999 -1.000000
v 1.000000 1.799999 -1.000000
v -1.000000 1.819999 1.000000
v 1.000000 1.819999 1.000000
v -1.000000 1.819999 -1.000000
v 1.000000 1.819999 -1.000000
v -1.000000 1.839999 1.000000
v 1.000000 1.839999 1.000000
v -1.000000 1.839999 -1.000000
v 1.000000 1.839999 -1.000000
v -1.000000 1.859999 1.000000
v 1.000000 1.859999 1.000000
v -1.000000 1.859999 -1.000000
v 1.000000 1.859999 -1.000000
v -1.000000 1.879999 1.000000
v 1.000000 1.879999 1.000000
v -1.000000 1.879999 -1.000000
v 1.000000 1.879999 -1.000000
v -1.000000 1.899999 1.000000
v 1.000000 1.899999 1.000000
v -1.000000 1.899999 -1.000000
v 1.000000 1.899999 -1.000000
v -1.000000 1.919999 1.000000
v 1.000000 1.919999 1.000000
v -1.000000 1.919999 -1.000000
v 1.000000 1.919999 -1.000000
v -1.000000 1.939999 1.000000
v 1.000000 1.939999 1.000000
v -1.000000 1.939999 -1.000000
v 1.000000 1.939999 -1.000000
v -1.000000 1.959999 1.000000
v 1.000000 1.959999 1.000000
v -1.000000 1.959999 -1.000000
v 1.000000 1.959999 -1.000000
v -1.000000 1.979999 1.000000
v 1.000000 1.979999 1.000000
v -1.000000 1.979999 -1.000000
v 1.000000 1.979999 -1.000000
vn 0.0000 1.0000 0.0000
usemtl None
s off
f 1//1 2//1 4//1 3//1
f 5//1 6//1 8//1 7//1
f 9//1 10//1 12//1 11//1
f 13//1 14//1 16//1 15//1
f 17//1 18//1 20//1 19//1
f 21//1 22//1 24//1 23//1
f 25//1 26//1 28//1 27//1
f 29//1 30//1 32//1 31//1
f 33//1 34//1 36//1 35//1
f 37//1 38//1 40//1 39//1
f 41//1 42//1 44//1 43//1
f 45//1 46//1 48//1 47//1
f 49//1 50//1 52//1 51//1
f 53//1 54//1 56//1 55//1
f 57//1 58//1 60//1 59//1
f 61//1 62//1 64//1 63//1
f 65//1 66//1 68//1 67//1
f 69//1 70//1 72//1 71//1
f 73//1 74//1 76//1 75//1
f 77//1 78//1 80//1 79//1
f 81//1 82//1 84//1 83//1
f 85//1 86//1 88//1 87//1
f 89//1 90//1 92//1 91//1
f 93//1 94//1 96//1 95//1
f 97//1 98//1 100//1 99//1
f 101//1 102//1 104//1 103//1
f 105//1 106//1 108//1 107//1
f 109//1 110//1 112//1 111//1
f 113//1 114//1 116//1 115//1
f 117//1 118//1 120//1 119//1
f 121//1 122//1 124//1 123//1
f 125//1 126//1 128//1 127//1
f 129//1 130//1 132//1 131//1
f 133//1 134//1 136//1 135//1
f 137//1 138//1 140//1 139//1
f 141//1 142//1 144//1 143//1
f 145//1 146//1 148//1 147//1
f 149//1 150//1 152//1 151//1
f 153//1 154//1 156//1 155//1
f 157//1 158//1 160//1 159//1
f 161//1 162//1 164//1 163//1
f 165//1 166//1 168//1 167//1
f 169//1 170//1 172//1 171//1
f 173//1 174//1 176//1 175//1
f 177//1 178//1 180//1 179//1
f 181//1 182//1 184//1 183//1
f 185//1 186//1 188//1 187//1
f 189//1 190//1 192//1 191//1
f 193//1 194//1 196//1 195//1
f 197//1 198//1 200//1 199//1
f 201//1 202//1 204//1 203//1
f 205//1 206//1 208//1 207//1
f 209//1 210//1 212//1 211//1
f 213//1 214//1 216//1 215//1
f 217//1 218//1 220//1 219//1
f 221//1 222//1 224//1 223//1
f 225//1 226//1 228//1 227//1
f 229//1 230//1 232//1 231//1
f 233//1 234//1 236//1 235//1
f 237//1 238//1 240//1 239//1
f 241//1 242//1 244//1 243//1
f 245//1 246//1 248//1 247//1
f 249//1 250//1 252//1 251//1
f 253//1 254//1 256//1 255//1
f 257//1 258//1 260//1 259//1
f 261//1 262//1 264//1 263//1
f 265//1 266//1 268//1 267//1
f 269//1 270//1 272//1 271//1
f 273//1 274//1 276//1 275//1
f 277//1 278//1 280//1 279//1
f 281//1 282//1 284//1 283//1
f 285//1 286//1 288//1 287//1
f 289//1 290//1 292//1 291//1
f 293//1 294//1 296//1 295//1
f 297//1 298//1 300//1 299//1
f 301//1 302//1 304//1 303//1
f 305//1 306//1 308//1 307//1
f 309//1 310//1 312//1 311//1
f 313//1 314//1 316//1 315//1
f 317//1 318//1 320//1 319//1
f 321//1 322//1 324//1 323//1
f 325//1 326//1 328//1 327//1
f 329//1 330//1 332//1 331//1
f 333//1 334//1 336//1 335//1
f 337//1 338//1 340//1 339//1
f 341//1 342//1 344//1 343//1
f 345//1 346//1 348//1 347//1
f 349//1 350//1 352//1 351//1
f 353//1 354//1 356//1 355//1
f 357//1 358//1 360//1 359//1
f 361//1 362//1 364//1 363//1
f 365//1 366//1 368//1 367//1
f 369//1 370//1 372//1 371//1
f 373//1 374//1 376//1 375//1
f 377//1 378//1 380//1 379//1
f 381//1 382//1 384//1 383//1
f 385//1 386//1 388//1 387//1
f 389//1 390//1 392//1 391//1
f 393//1 394//1 396//1 395//1
f 397//1 398//1 400//1 399//1
